<svg width="30" height="20" viewBox="0 0 30 20" fill="none" xmlns="http://www.w3.org/2000/svg">
<path d="M27.4359 0H1.79487C0.803591 0 0 0.803591 0 1.79487V18.2051C0 19.1964 0.803591 20 1.79487 20H27.4359C28.4272 20 29.2308 19.1964 29.2308 18.2051V1.79487C29.2308 0.803591 28.4272 0 27.4359 0Z" fill="black"/>
<path d="M17.3385 14.6033H12.0303V5.1344H17.3385V14.6033Z" fill="#FF5F00"/>
<path d="M12.3707 9.8682C12.3707 7.94738 13.2767 6.23636 14.6878 5.13374C13.6559 4.32745 12.3537 3.84619 10.9384 3.84619C7.58802 3.84619 4.87207 6.5423 4.87207 9.8682C4.87207 13.194 7.58802 15.8902 10.9384 15.8902C12.3537 15.8902 13.6559 15.4089 14.6878 14.6026C13.2767 13.5 12.3707 11.789 12.3707 9.8682Z" fill="#EB001B"/>
<path d="M24.4977 9.8682C24.4977 13.194 21.7817 15.8902 18.4313 15.8902C17.0161 15.8902 15.7138 15.4089 14.6816 14.6026C16.093 13.5 16.9991 11.789 16.9991 9.8682C16.9991 7.94738 16.093 6.23636 14.6816 5.13374C15.7138 4.32745 17.0161 3.84619 18.4313 3.84619C21.7817 3.84619 24.4977 6.5423 24.4977 9.8682Z" fill="#F79E1B"/>
</svg>
