<svg width="30" height="30" viewBox="0 0 30 30" fill="none" xmlns="http://www.w3.org/2000/svg">
<path d="M14.9614 0.00268581C14.9614 0.00268581 23.8056 -0.39418 28.4925 8.46052H14.2095C14.2095 8.46052 11.512 8.37212 9.21247 11.6326C8.54932 12.9986 7.84368 14.4069 8.63805 17.1812C7.48827 15.2434 2.53516 6.65253 2.53516 6.65253C2.53516 6.65253 6.02886 0.35488 14.9614 0.00268581Z" fill="#FD1915"/>
<path d="M28.0324 22.48C28.0324 22.48 23.9539 30.3077 13.915 29.9231C15.1517 27.7855 21.0563 17.601 21.0563 17.601C21.0563 17.601 22.4817 15.3181 20.7986 11.704C19.9429 10.4485 19.0711 9.13326 16.2609 8.4317C18.5212 8.4096 28.4643 8.4317 28.4643 8.4317C28.4643 8.4317 32.193 14.5977 28.0324 22.48Z" fill="#F9E102"/>
<path d="M1.95405 22.5444C1.95405 22.5444 -2.8131 15.1107 2.54451 6.64062L9.68344 18.9655C9.68344 18.9655 10.955 21.3369 14.9386 21.6928C16.457 21.5833 18.0368 21.4892 20.0513 19.4132C18.9402 21.3745 13.9474 29.9414 13.9474 29.9414C13.9474 29.9414 6.72497 30.0754 1.95405 22.5444Z" fill="#5BB43C"/>
<path d="M13.915 30.0011L15.9243 21.6491C15.9243 21.6491 18.1333 21.4769 19.9835 19.4531C18.8328 21.4671 13.915 30.0011 13.915 30.0011Z" fill="#55A838"/>
<path d="M8.2334 15.0969C8.23331 13.7783 8.6257 12.4894 9.36097 11.3929C10.0962 10.2965 11.1413 9.44197 12.3641 8.9373C13.5869 8.43264 14.9324 8.30055 16.2306 8.55773C17.5287 8.81492 18.7212 9.44983 19.6571 10.3822C20.593 11.3145 21.2304 12.5024 21.4887 13.7957C21.7469 15.0889 21.6144 16.4294 21.1079 17.6476C20.6015 18.8658 19.7437 19.9071 18.6432 20.6396C17.5427 21.3722 16.2489 21.7632 14.9253 21.7632C14.0466 21.7633 13.1764 21.5909 12.3645 21.2559C11.5526 20.9209 10.8149 20.4299 10.1935 19.8109C9.57204 19.1919 9.07911 18.4569 8.7428 17.6481C8.40649 16.8393 8.2334 15.9724 8.2334 15.0969Z" fill="white"/>
<path d="M9.35352 15.0924C9.35305 13.9944 9.67944 12.9209 10.2914 12.0078C10.9034 11.0946 11.7734 10.3828 12.7915 9.96228C13.8096 9.54178 14.93 9.43152 16.011 9.64544C17.092 9.85936 18.085 10.3878 18.8645 11.1641C19.644 11.9403 20.1749 12.9294 20.3901 14.0062C20.6053 15.083 20.4951 16.1993 20.0734 17.2137C19.6518 18.2282 18.9376 19.0952 18.0212 19.7053C17.1049 20.3153 16.0275 20.6409 14.9254 20.6409C14.1938 20.6413 13.4693 20.498 12.7933 20.2193C12.1173 19.9406 11.5031 19.5319 10.9856 19.0166C10.4682 18.5014 10.0577 17.8896 9.7777 17.2163C9.49765 16.5429 9.35352 15.8212 9.35352 15.0924Z" fill="url(#paint0_linear_7926_59872)"/>
<path d="M28.4642 8.44213L20.1925 10.8586C20.1925 10.8586 18.944 9.03273 16.2607 8.44072C18.5877 8.43273 28.4642 8.44213 28.4642 8.44213Z" fill="#E7D102"/>
<path d="M8.47713 16.8854C7.31461 14.8794 2.53613 6.65625 2.53613 6.65625L8.66452 12.6976C8.66452 12.6976 8.03487 13.9884 8.2737 15.8316L8.47713 16.8854Z" fill="#EB1714"/>
<defs>
<linearGradient id="paint0_linear_7926_59872" x1="14.9254" y1="9.61947" x2="14.9254" y2="20.3104" gradientUnits="userSpaceOnUse">
<stop stop-color="#8DB7D7"/>
<stop offset="1" stop-color="#2A53A3"/>
</linearGradient>
</defs>
</svg>
