<svg width="18" height="16" viewBox="0 0 18 16" fill="none" xmlns="http://www.w3.org/2000/svg">
<path d="M0.600098 1L1.3201 3M1.3201 3L4.2001 11H17.4001V5C17.4001 3.89543 16.3256 3 15.0001 3H1.3201ZM15.0001 15C14.3374 15 13.8001 14.5523 13.8001 14C13.8001 13.4477 14.3374 13 15.0001 13C15.6628 13 16.2001 13.4477 16.2001 14C16.2001 14.5523 15.6628 15 15.0001 15ZM5.4001 14C5.4001 13.4477 5.93736 13 6.6001 13C7.26284 13 7.8001 13.4477 7.8001 14C7.8001 14.5523 7.26284 15 6.6001 15C5.93736 15 5.4001 14.5523 5.4001 14Z" stroke="white"/>
</svg>
