<svg width="28" height="28" viewBox="0 0 28 28" fill="none" xmlns="http://www.w3.org/2000/svg">
<circle cx="14" cy="14" r="14" fill="#E62875"/>
<path d="M11.3333 11.8668H12.4M15.6 16.1334H16.6667M16.6667 11.3334L11.3333 16.6668M13.2549 6.84208L12.0506 8.04637C11.853 8.24399 11.585 8.35501 11.3055 8.35501H9.40866C8.82668 8.35501 8.3549 8.82679 8.3549 9.40876V11.3056C8.3549 11.5851 8.24388 11.8531 8.04627 12.0507L6.84198 13.255C6.43046 13.6665 6.43046 14.3337 6.84198 14.7452L8.04627 15.9495C8.24388 16.1471 8.3549 16.4152 8.3549 16.6946V18.5915C8.3549 19.1734 8.82668 19.6452 9.40866 19.6452H11.3055C11.585 19.6452 11.853 19.7562 12.0506 19.9539L13.2549 21.1581C13.6664 21.5697 14.3336 21.5697 14.7451 21.1581L15.9494 19.9539C16.147 19.7562 16.4151 19.6452 16.6945 19.6452H18.5914C19.1733 19.6452 19.6451 19.1734 19.6451 18.5915V16.6946C19.6451 16.4152 19.7561 16.1471 19.9537 15.9495L21.158 14.7452C21.5696 14.3337 21.5696 13.6665 21.158 13.255L19.9537 12.0507C19.7561 11.8531 19.6451 11.5851 19.6451 11.3056V9.40876C19.6451 8.82679 19.1733 8.35501 18.5914 8.35501H16.6945C16.4151 8.35501 16.147 8.24399 15.9494 8.04637L14.7451 6.84208C14.3336 6.43057 13.6664 6.43057 13.2549 6.84208Z" stroke="white"/>
</svg>
