<svg width="16" height="16" viewBox="0 0 16 16" fill="none" xmlns="http://www.w3.org/2000/svg">
<path d="M5.72852 6H6.72852M9.72852 10H10.7285M10.7285 5.5L5.72852 10.5M7.52997 1.28935L6.40095 2.41837C6.21568 2.60363 5.96441 2.70772 5.7024 2.70772H3.92412C3.37853 2.70772 2.93623 3.15001 2.93623 3.69561V5.47389C2.93623 5.73589 2.83215 5.98717 2.64688 6.17243L1.51786 7.30145C1.13207 7.68725 1.13207 8.31275 1.51786 8.69855L2.64688 9.82757C2.83215 10.0128 2.93623 10.2641 2.93623 10.5261V12.3044C2.93623 12.85 3.37853 13.2923 3.92412 13.2923H5.7024C5.96441 13.2923 6.21568 13.3964 6.40095 13.5816L7.52997 14.7107C7.91577 15.0964 8.54127 15.0964 8.92706 14.7107L10.0561 13.5816C10.2413 13.3964 10.4926 13.2923 10.7546 13.2923H12.5329C13.0785 13.2923 13.5208 12.85 13.5208 12.3044V10.5261C13.5208 10.2641 13.6249 10.0128 13.8101 9.82757L14.9392 8.69855C15.325 8.31275 15.325 7.68725 14.9392 7.30145L13.8101 6.17243C13.6249 5.98717 13.5208 5.73589 13.5208 5.47389V3.69561C13.5208 3.15001 13.0785 2.70772 12.5329 2.70772H10.7546C10.4926 2.70772 10.2413 2.60363 10.0561 2.41837L8.92706 1.28935C8.54127 0.903551 7.91577 0.903551 7.52997 1.28935Z" stroke="white"/>
</svg>
