<svg width="13" height="13" viewBox="0 0 13 13" fill="none" xmlns="http://www.w3.org/2000/svg">
<g clip-path="url(#clip0_2042_2442)">
<path d="M10.1434 7.36994C9.24003 7.36994 8.43865 7.80659 7.93265 8.47769L5.50127 7.26292C5.57233 7.01806 5.61243 6.76006 5.61243 6.49251C5.61243 6.22496 5.57233 5.96711 5.50127 5.72224L7.93265 4.50748C8.43879 5.17857 9.24003 5.61508 10.1434 5.61508C11.6711 5.61536 12.914 4.37249 12.914 2.84479C12.914 1.31709 11.6711 0.0742188 10.1434 0.0742188C8.61574 0.0742188 7.37286 1.31709 7.37286 2.84479C7.37286 3.11234 7.41296 3.37019 7.48402 3.6152L5.05278 4.82983C4.54664 4.15873 3.7454 3.72208 2.842 3.72208C1.3143 3.72208 0.0714264 4.96496 0.0714264 6.49265C0.0714264 8.02035 1.3143 9.26323 2.842 9.26323C3.7454 9.26323 4.54664 8.82658 5.05278 8.15548L7.48402 9.37025C7.41296 9.61511 7.37286 9.87311 7.37286 10.1407C7.37286 11.6682 8.61574 12.9111 10.1434 12.9111C11.6711 12.9111 12.914 11.6682 12.914 10.1405C12.914 8.61282 11.6711 7.36994 10.1434 7.36994ZM10.1434 1.07309C11.1205 1.07309 11.9151 1.8679 11.9151 2.84479C11.9151 3.82168 11.1205 4.6165 10.1434 4.6165C9.1664 4.6165 8.37173 3.82183 8.37173 2.84479C8.37173 1.86776 9.1664 1.07309 10.1434 1.07309ZM2.842 8.26436C1.86511 8.26436 1.07029 7.46969 1.07029 6.49265C1.07029 5.51562 1.86511 4.72095 2.842 4.72095C3.81889 4.72095 4.6137 5.51562 4.6137 6.49265C4.6137 7.46969 3.81889 8.26436 2.842 8.26436ZM10.1434 11.9121C9.1664 11.9121 8.37173 11.1174 8.37173 10.1405C8.37173 9.16348 9.1664 8.36881 10.1434 8.36881C11.1205 8.36881 11.9151 9.16363 11.9151 10.1405C11.9151 11.1174 11.1205 11.9121 10.1434 11.9121Z" fill="white"/>
</g>
<defs>
<clipPath id="clip0_2042_2442">
<rect width="13" height="13" fill="white"/>
</clipPath>
</defs>
</svg>
