<svg xmlns="http://www.w3.org/2000/svg" width="71.33" height="71.33" viewBox="0 0 71.33 71.33">
  <g id="Grupo_4800" data-name="Grupo 4800" transform="translate(-1099.199 -416)">
    <circle id="Elipse_310" data-name="Elipse 310" cx="35.665" cy="35.665" r="35.665" transform="translate(1099.199 416)" fill="#a2a2a2"/>
    <g id="Iconly_Light-outline_Message" data-name="Iconly/Light-outline/Message" transform="translate(1115.199 433)">
      <g id="Message">
        <path id="Message-2" data-name="Message" d="M10.94,35.793a10.567,10.567,0,0,1-7.852-3.366A12.091,12.091,0,0,1,0,24.142V11.651A12.091,12.091,0,0,1,3.088,3.366,10.567,10.567,0,0,1,10.94,0H29.125a11.166,11.166,0,0,1,8,3.526,11.011,11.011,0,0,1,2.963,8.125l0,12.4a11.088,11.088,0,0,1-10.972,11.74Zm-7.9-24.142V24.142c0,4.99,3.321,8.612,7.9,8.612H29.091a8.057,8.057,0,0,0,7.951-8.612l0-12.581a8.051,8.051,0,0,0-7.953-8.522H10.94C6.363,3.039,3.043,6.661,3.043,11.651Zm13.766,8.508-.323-.234L8.195,13.353A1.52,1.52,0,0,1,9.9,10.845l.188.125,8.28,6.564a2.78,2.78,0,0,0,3.169.175l.236-.163,8.22-6.572A1.52,1.52,0,0,1,32.06,13.2l-.166.152-8.235,6.584a5.835,5.835,0,0,1-6.85.227Z" fill="#fff"/>
      </g>
    </g>
  </g>
</svg>
