<svg xmlns="http://www.w3.org/2000/svg" xmlns:xlink="http://www.w3.org/1999/xlink" width="71.727" height="71.727" viewBox="0 0 71.727 71.727">
  <defs>
    <clipPath id="clip-path">
      <rect id="Ret창ngulo_2174" data-name="Ret창ngulo 2174" width="71.727" height="71.727" transform="translate(0 0)" fill="none"/>
    </clipPath>
  </defs>
  <g id="Grupo_4798" data-name="Grupo 4798" transform="translate(0 0)">
    <rect id="Ret창ngulo_2173" data-name="Ret창ngulo 2173" width="71.726" height="71.726" rx="35.863" transform="translate(0 0.001)" fill="#cd2129"/>
    <g id="Grupo_4799" data-name="Grupo 4799">
      <g id="Grupo_4798-2" data-name="Grupo 4798" clip-path="url(#clip-path)">
        <path id="Caminho_17563" data-name="Caminho 17563" d="M24.387,39.2a.843.843,0,0,0,1.225-.611c.112-.429.38-1.513.5-1.964a1.182,1.182,0,0,0-.352-1.363,7.059,7.059,0,0,1-1.614-4.8A11.587,11.587,0,0,1,36.191,18.741c6.569,0,10.179,4.015,10.179,9.377,0,7.054-3.122,13.007-7.757,13.007a3.786,3.786,0,0,1-3.862-4.711c.738-3.1,2.161-6.445,2.161-8.683,0-2-1.075-3.673-3.3-3.673-2.617,0-4.719,2.707-4.719,6.333a9.4,9.4,0,0,0,.781,3.871S27,45.608,26.527,47.594a27.424,27.424,0,0,0-.073,9.3.325.325,0,0,0,.581.141,26.078,26.078,0,0,0,4.416-8.007c.3-1.088,1.723-6.724,1.723-6.724.849,1.622,3.334,3.048,5.975,3.048,7.866,0,13.2-7.169,13.2-16.767,0-7.257-6.146-14.016-15.489-14.016-11.624,0-17.486,8.334-17.486,15.284,0,4.209,1.594,7.952,5.011,9.346" fill="#fff"/>
      </g>
    </g>
  </g>
</svg>
