<svg xmlns="http://www.w3.org/2000/svg" xmlns:xlink="http://www.w3.org/1999/xlink" width="71.727" height="71.727" viewBox="0 0 71.727 71.727">
  <defs>
    <clipPath id="clip-path">
      <rect id="Ret창ngulo_2170" data-name="Ret창ngulo 2170" width="71.727" height="71.727" transform="translate(0 0)" fill="none"/>
    </clipPath>
  </defs>
  <g id="Grupo_4787" data-name="Grupo 4787" transform="translate(0 0)">
    <rect id="Ret창ngulo_2169" data-name="Ret창ngulo 2169" width="71.726" height="71.726" rx="35.863" transform="translate(0 0.001)" fill="#29a9e1"/>
    <g id="Grupo_4794" data-name="Grupo 4794">
      <g id="Grupo_4793" data-name="Grupo 4793" clip-path="url(#clip-path)">
        <path id="Caminho_17560" data-name="Caminho 17560" d="M16.755,47.869a22.189,22.189,0,0,0,12.018,3.523c14.558,0,22.781-12.295,22.286-23.323a15.911,15.911,0,0,0,3.912-4.059,15.7,15.7,0,0,1-4.5,1.234,7.853,7.853,0,0,0,3.446-4.338,15.712,15.712,0,0,1-4.978,1.9,7.846,7.846,0,0,0-13.361,7.151,22.252,22.252,0,0,1-16.16-8.192,7.849,7.849,0,0,0,2.427,10.468,7.8,7.8,0,0,1-3.553-.981,7.851,7.851,0,0,0,6.289,7.788,7.855,7.855,0,0,1-3.54.133,7.846,7.846,0,0,0,7.324,5.446,15.756,15.756,0,0,1-11.608,3.246" fill="#fff"/>
      </g>
    </g>
  </g>
</svg>
