<svg xmlns="http://www.w3.org/2000/svg" xmlns:xlink="http://www.w3.org/1999/xlink" width="71.727" height="71.727" viewBox="0 0 71.727 71.727">
  <defs>
    <clipPath id="clip-path">
      <rect id="Ret창ngulo_2172" data-name="Ret창ngulo 2172" width="71.727" height="71.727" transform="translate(0 0)" fill="none"/>
    </clipPath>
  </defs>
  <g id="Grupo_4788" data-name="Grupo 4788" transform="translate(0 0)">
    <rect id="Ret창ngulo_2171" data-name="Ret창ngulo 2171" width="71.726" height="71.726" rx="35.863" transform="translate(0 0.001)" fill="#21d755"/>
    <g id="Grupo_4797" data-name="Grupo 4797">
      <g id="Grupo_4796" data-name="Grupo 4796" clip-path="url(#clip-path)">
        <path id="Caminho_17561" data-name="Caminho 17561" d="M55.526,34.869a19.318,19.318,0,0,0-38.6-.352c-.008.28-.017.56-.017.84a19.021,19.021,0,0,0,2.766,9.9L16.193,55.539l10.7-3.4A19.339,19.339,0,0,0,55.535,35.357c0-.163,0-.325-.009-.488M36.221,51.47A16.18,16.18,0,0,1,27.288,48.8l-6.239,1.989,2.025-5.986a15.951,15.951,0,0,1-3.093-9.449,15.041,15.041,0,0,1,.082-1.564,16.246,16.246,0,0,1,32.343.307c.036.417.055.832.055,1.257A16.2,16.2,0,0,1,36.221,51.47" fill="#fff" fill-rule="evenodd"/>
        <path id="Caminho_17562" data-name="Caminho 17562" d="M45.073,39.227c-.479-.235-2.8-1.374-3.237-1.528s-.751-.235-1.067.235-1.23,1.528-1.5,1.836-.552.352-1.031.117a12.793,12.793,0,0,1-3.807-2.333A14.029,14.029,0,0,1,31.8,34.308c-.271-.47-.027-.723.208-.958.217-.217.47-.552.714-.823.064-.082.118-.154.172-.226a5.12,5.12,0,0,0,.3-.561.849.849,0,0,0-.035-.823c-.118-.235-1.068-2.549-1.466-3.49s-.786-.777-1.066-.777-.588-.045-.905-.045a1.751,1.751,0,0,0-1.266.587A5.266,5.266,0,0,0,26.8,31.116a6,6,0,0,0,.244,1.6,10.642,10.642,0,0,0,1.691,3.255c.235.308,3.273,5.208,8.083,7.1,4.819,1.872,4.819,1.248,5.688,1.167A4.724,4.724,0,0,0,45.7,42a3.876,3.876,0,0,0,.281-2.233c-.118-.19-.435-.308-.9-.543" fill="#fff" fill-rule="evenodd"/>
      </g>
    </g>
  </g>
</svg>
