<svg width="20" height="24" viewBox="0 0 20 24" fill="none" xmlns="http://www.w3.org/2000/svg">
<path d="M16.42 12.7504C16.4537 16.3824 19.6062 17.591 19.6411 17.6065C19.6144 17.6917 19.1374 19.3289 17.9802 21.0199C16.9799 22.482 15.9417 23.9386 14.3063 23.9688C12.6993 23.9984 12.1825 23.0159 10.3453 23.0159C8.50857 23.0159 7.93445 23.9386 6.41325 23.9984C4.83462 24.0582 3.63251 22.4174 2.62388 20.9608C0.562884 17.9811 -1.01215 12.5409 1.10272 8.86873C2.15334 7.0451 4.03088 5.8903 6.06878 5.86069C7.61896 5.83112 9.08214 6.9036 10.0298 6.9036C10.9768 6.9036 12.7549 5.61385 14.6241 5.80327C15.4066 5.83584 17.6032 6.11936 19.0137 8.18392C18.9 8.25437 16.3927 9.71399 16.42 12.7504ZM13.3998 3.83196C14.2379 2.81747 14.802 1.4052 14.6481 0C13.4401 0.0485534 11.9792 0.805022 11.1127 1.81896C10.3361 2.71684 9.65604 4.15397 9.83955 5.53135C11.1861 5.63553 12.5617 4.8471 13.3998 3.83196Z" fill="black"/>
</svg>
