<svg width="15" height="15" viewBox="0 0 22 22" fill="none" xmlns="http://www.w3.org/2000/svg">
  <path d="M16.7143 19.5714L16.8711 19.0967L16.6531 19.0246L16.4564 19.1431L16.7143 19.5714ZM19.5714 16.7143L19.1503 16.4448L19.0214 16.6462L19.0972 16.8728L19.5714 16.7143ZM21 20.9869L20.8432 21.4617C21.0229 21.521 21.2206 21.4739 21.3542 21.3398C21.4878 21.2058 21.5342 21.0078 21.4742 20.8284L21 20.9869ZM16.4564 19.1431C15.0484 19.9908 12.8227 20.4869 11 20.4869V21.4869C12.9516 21.4869 15.3687 20.9652 16.9722 19.9998L16.4564 19.1431ZM11 20.4869C5.75297 20.4869 1.5 16.2363 1.5 10.9935H0.5C0.5 16.7893 5.20132 21.4869 11 21.4869V20.4869ZM1.5 10.9935C1.5 5.75074 5.75298 1.5 11 1.5V0.5C5.2013 0.5 0.5 5.19784 0.5 10.9935H1.5ZM11 1.5C16.247 1.5 20.5 5.75074 20.5 10.9935H21.5C21.5 5.19784 16.7987 0.5 11 0.5V1.5ZM20.5 10.9935C20.5 12.9184 20.0736 15.0017 19.1503 16.4448L19.9926 16.9838C21.055 15.3232 21.5 13.029 21.5 10.9935H20.5ZM16.5575 20.0462L20.8432 21.4617L21.1568 20.5121L16.8711 19.0967L16.5575 20.0462ZM21.4742 20.8284L20.0456 16.5557L19.0972 16.8728L20.5258 21.1455L21.4742 20.8284Z" fill="#E62875"/>
</svg>