<svg width="482" height="482" viewBox="0 0 482 482" fill="none" xmlns="http://www.w3.org/2000/svg">
<path d="M482 0H0V482H482V0Z" fill="url(#paint0_linear_5014_7870)"/>
<path d="M357.685 196.985H336.08C331.55 196.985 327.896 200.527 327.896 204.871V387.409C327.896 391.771 331.568 395.294 336.08 395.294H357.685C362.215 395.294 365.869 391.752 365.869 387.409V204.889C365.869 200.509 362.196 196.985 357.685 196.985Z" fill="white"/>
<path d="M146.402 282.158H124.797C120.267 282.158 116.613 285.7 116.613 290.043V387.408C116.613 391.77 120.285 395.293 124.797 395.293H146.402C150.932 395.293 154.586 391.751 154.586 387.408V290.062C154.586 285.7 150.932 282.158 146.402 282.158Z" fill="white"/>
<path d="M304.855 137.183H283.25C278.72 137.183 275.066 140.725 275.066 145.068V356.426C275.066 360.788 278.739 364.312 283.25 364.312H304.855C309.385 364.312 313.039 360.77 313.039 356.426V145.068C313.039 140.725 309.385 137.183 304.855 137.183Z" fill="white"/>
<path d="M199.642 126.372H178.037C173.525 126.372 169.853 129.913 169.853 134.257V345.615C169.853 349.977 173.525 353.5 178.037 353.5H199.642C204.153 353.5 207.826 349.958 207.826 345.615V134.257C207.826 129.913 204.172 126.372 199.642 126.372Z" fill="white"/>
<path d="M252.044 87H230.439C225.927 87 222.255 90.5419 222.255 94.8853V339.35C222.255 343.713 225.927 347.236 230.439 347.236H252.044C256.555 347.236 260.228 343.694 260.228 339.35V94.8853C260.228 90.5232 256.555 87 252.044 87Z" fill="white"/>
<defs>
<linearGradient id="paint0_linear_5014_7870" x1="173.424" y1="606.11" x2="564.784" y2="59.23" gradientUnits="userSpaceOnUse">
<stop offset="0.27" stop-color="#E62875"/>
<stop offset="0.36" stop-color="#D8297D"/>
<stop offset="0.53" stop-color="#B42F92"/>
<stop offset="0.76" stop-color="#7A37B6"/>
<stop offset="1" stop-color="#3542E0"/>
</linearGradient>
</defs>
</svg>
