<svg width="105" height="27" viewBox="0 0 105 27" fill="none" xmlns="http://www.w3.org/2000/svg">
<path d="M15.7242 7.17383H14.3149C14.0195 7.17383 13.7811 7.40485 13.7811 7.68816V19.5944C13.7811 19.8789 14.0207 20.1087 14.3149 20.1087H15.7242C16.0196 20.1087 16.2579 19.8777 16.2579 19.5944V7.68937C16.2579 7.40363 16.0184 7.17383 15.7242 7.17383Z" fill="url(#paint0_linear_2808_2390)"/>
<path d="M1.94303 12.7294H0.533785C0.238318 12.7294 0 12.9604 0 13.2437V19.5944C0 19.8789 0.239534 20.1087 0.533785 20.1087H1.94303C2.23849 20.1087 2.47681 19.8777 2.47681 19.5944V13.2449C2.47681 12.9604 2.23849 12.7294 1.94303 12.7294Z" fill="url(#paint1_linear_2808_2390)"/>
<path d="M12.2783 3.27319H10.869C10.5736 3.27319 10.3352 3.50422 10.3352 3.78752V17.5735C10.3352 17.858 10.5748 18.0878 10.869 18.0878H12.2783C12.5737 18.0878 12.8121 17.8568 12.8121 17.5735V3.78752C12.8121 3.50422 12.5737 3.27319 12.2783 3.27319Z" fill="url(#paint2_linear_2808_2390)"/>
<path d="M5.41567 2.56799H4.00643C3.71218 2.56799 3.47264 2.79902 3.47264 3.08232V16.8683C3.47264 17.1528 3.71218 17.3826 4.00643 17.3826H5.41567C5.70992 17.3826 5.94945 17.1516 5.94945 16.8683V3.08232C5.94945 2.79902 5.71113 2.56799 5.41567 2.56799Z" fill="url(#paint3_linear_2808_2390)"/>
<path d="M8.83359 0H7.42435C7.1301 0 6.89056 0.231021 6.89056 0.514328V16.4598C6.89056 16.7443 7.1301 16.9741 7.42435 16.9741H8.83359C9.12784 16.9741 9.36737 16.7431 9.36737 16.4598V0.514328C9.36737 0.229805 9.12784 0 8.83359 0Z" fill="url(#paint4_linear_2808_2390)"/>
<path d="M19.8826 11.2228C19.8826 9.76857 19.8984 8.25111 19.93 6.66921C19.9616 5.08853 19.9859 4.06108 20.0017 3.58688C20.0017 3.46042 20.0528 3.34977 20.1562 3.25493C20.2595 3.16009 20.3738 3.11267 20.5003 3.11267H21.7575C21.884 3.11267 21.9946 3.16009 22.0894 3.25493C22.1843 3.34977 22.2317 3.46042 22.2317 3.58688L22.256 10.0373C22.256 10.0689 22.2718 10.0932 22.3035 10.109C22.3351 10.1248 22.3667 10.1175 22.3983 10.0847C22.7302 9.64211 23.2239 9.27491 23.8805 8.98187C24.5359 8.69005 25.173 8.54293 25.7895 8.54293C26.8485 8.54293 27.8249 8.808 28.7174 9.33692C29.6099 9.86706 30.3175 10.5784 30.8404 11.4708C31.362 12.3645 31.6234 13.3409 31.6234 14.4C31.6234 15.459 31.3632 16.4391 30.8404 17.34C30.3187 18.241 29.6111 18.9523 28.7174 19.474C27.8237 19.9956 26.8473 20.257 25.7895 20.257C24.7608 20.257 23.8087 20.0078 22.9321 19.5104C22.0542 19.0131 21.3514 18.3407 20.8213 17.4945C20.2911 16.6494 20.0029 15.7119 19.9555 14.6845C19.9069 13.8321 19.8826 12.6782 19.8826 11.2228ZM24.0325 11.3772C23.495 11.6848 23.0719 12.108 22.7643 12.6454C22.4554 13.1828 22.3022 13.7677 22.3022 14.4C22.3022 15.0322 22.4603 15.6134 22.7764 16.1424C23.0926 16.6725 23.5157 17.0944 24.0446 17.4106C24.5736 17.7267 25.1548 17.8848 25.7883 17.8848C26.4047 17.8848 26.9774 17.7267 27.5075 17.4106C28.0365 17.0944 28.4596 16.6713 28.7757 16.1424C29.0919 15.6134 29.2499 15.0322 29.2499 14.4C29.2499 13.7677 29.0919 13.1865 28.7757 12.6564C28.4596 12.1274 28.0365 11.7043 27.5075 11.3882C26.9774 11.072 26.3974 10.914 25.7651 10.914C25.1475 10.9152 24.5699 11.0684 24.0325 11.3772Z" fill="#292756"/>
<path d="M43.7144 14.0206C43.6986 14.3368 43.5491 14.614 43.2633 14.8511C42.9788 15.0882 42.6627 15.2074 42.3149 15.2074H35.0584C34.9951 15.2074 34.9404 15.2305 34.893 15.2779C34.8456 15.3253 34.8298 15.3885 34.8456 15.4676C35.0511 16.3211 35.4815 16.9534 36.1381 17.3644C36.7935 17.7754 37.5643 17.9809 38.4495 17.9809C38.9079 17.9809 39.3943 17.8775 39.9074 17.672C40.4205 17.4665 40.868 17.1905 41.2473 16.8428C41.3264 16.7637 41.4285 16.7236 41.555 16.7236C41.6972 16.7236 41.7994 16.7637 41.8638 16.8428L42.8122 17.7681C42.9071 17.8313 42.9545 17.9334 42.9545 18.0757C42.9545 18.2022 42.9071 18.3128 42.8122 18.4076C41.5635 19.6406 40.0934 20.257 38.4021 20.257C37.2956 20.257 36.2876 19.9968 35.3781 19.474C34.4686 18.9524 33.7537 18.2447 33.2321 17.351C32.7104 16.4585 32.449 15.4578 32.449 14.3514C32.449 13.972 32.4648 13.679 32.4964 13.4735C32.6229 12.4776 32.9633 11.6083 33.5166 10.8654C34.0698 10.1224 34.769 9.54974 35.6152 9.14606C36.4603 8.74237 37.382 8.54175 38.3778 8.54175C38.5359 8.54175 38.773 8.55755 39.0891 8.58917C39.9427 8.68401 40.7257 8.98799 41.437 9.50232C42.1483 10.0154 42.7089 10.6368 43.1211 11.3639C43.532 12.091 43.7375 12.795 43.7375 13.4747L43.7144 14.0206ZM36.2329 11.342C35.6079 11.8478 35.2091 12.457 35.0353 13.1683L35.0109 13.24C35.0109 13.3033 35.0353 13.3592 35.0827 13.4054C35.1301 13.4528 35.186 13.4771 35.248 13.4771H41.3422C41.4212 13.4771 41.4844 13.4455 41.5319 13.3823C41.5793 13.3191 41.5866 13.2473 41.555 13.1683C41.3337 12.4412 40.9774 11.8284 40.4874 11.331C39.9974 10.8325 39.3177 10.5845 38.4483 10.5845C37.5972 10.5833 36.8579 10.8362 36.2329 11.342Z" fill="#292756"/>
<path d="M44.6154 22.3448C44.5838 20.527 44.568 18.8357 44.568 17.2696C44.568 16.2105 44.5838 15.1587 44.6154 14.1155C44.6628 13.088 44.951 12.1518 45.4812 11.3055C46.0101 10.4605 46.7141 9.78806 47.592 9.28954C48.4699 8.79223 49.4219 8.54297 50.4494 8.54297C51.5084 8.54297 52.4848 8.80804 53.3785 9.33696C54.271 9.8671 54.9786 10.5784 55.5003 11.4709C56.0219 12.3646 56.2833 13.341 56.2833 14.4C56.2833 15.4591 56.0219 16.4354 55.5003 17.3279C54.9786 18.2216 54.271 18.9329 53.3785 19.4618C52.4848 19.992 51.5084 20.2558 50.4494 20.2558C49.8329 20.2558 49.1921 20.1051 48.5282 19.8047C47.8643 19.5044 47.3743 19.1408 47.0582 18.7141C47.0424 18.6825 47.0181 18.6703 46.9864 18.6788C46.9548 18.6873 46.939 18.7068 46.939 18.7384L46.8916 25.8758C46.8916 26.0022 46.8442 26.1129 46.7493 26.2077C46.6545 26.3026 46.5439 26.35 46.4174 26.35H45.1601C45.0337 26.35 44.923 26.3026 44.8282 26.2077C44.7334 26.1129 44.6859 26.0022 44.6859 25.8758C44.6714 25.3408 44.647 24.1626 44.6154 22.3448ZM47.4376 16.1436C47.7537 16.6738 48.1768 17.0957 48.7057 17.4118C49.2347 17.728 49.8159 17.886 50.4481 17.886C51.0804 17.886 51.6616 17.728 52.1905 17.4118C52.7195 17.0957 53.1426 16.6725 53.4587 16.1436C53.7749 15.6147 53.9329 15.0335 53.9329 14.4012C53.9329 13.769 53.7749 13.1841 53.4587 12.6467C53.1426 12.1092 52.7195 11.6861 52.1905 11.3785C51.6604 11.0696 51.0804 10.9164 50.4481 10.9164C49.8159 10.9164 49.2347 11.0745 48.7057 11.3906C48.1756 11.7068 47.7537 12.1299 47.4376 12.6588C47.1214 13.189 46.9633 13.7702 46.9633 14.4024C46.9633 15.0347 47.1214 15.6147 47.4376 16.1436Z" fill="#292756"/>
<path d="M59.2708 2.56801C59.3498 2.64705 59.3899 2.74189 59.3899 2.85254L59.4617 6.64739V16.0379L59.3899 19.8558C59.3899 19.9665 59.3498 20.0613 59.2708 20.1404C59.1917 20.2194 59.0969 20.2595 58.9863 20.2595H57.5867C57.4761 20.2595 57.3813 20.2206 57.3022 20.1404C57.2232 20.0613 57.1831 19.9665 57.1831 19.8558L57.1113 16.0379V6.64739L57.1831 2.85254C57.1831 2.74189 57.222 2.64705 57.3022 2.56801C57.3813 2.48898 57.4761 2.44885 57.5867 2.44885H58.9863C59.0969 2.44885 59.1917 2.48898 59.2708 2.56801Z" fill="#292756"/>
<path d="M72.5266 16.5583C72.5266 17.3486 72.5108 18.0441 72.4792 18.6448C72.4476 19.2454 72.4233 19.6248 72.4075 19.7828C72.4075 19.9093 72.3601 20.02 72.2652 20.1148C72.1704 20.2096 72.0524 20.2571 71.9102 20.2571H70.6529C70.5423 20.2571 70.4389 20.2096 70.3441 20.1148C70.2492 20.02 70.1933 19.9093 70.1787 19.7828L70.1544 18.7396C70.1544 18.708 70.1422 18.6837 70.1191 18.6679C70.096 18.6521 70.0681 18.6606 70.0365 18.691C69.7203 19.1336 69.2303 19.5056 68.5664 19.806C67.9025 20.1063 67.2618 20.2571 66.6453 20.2571C65.5862 20.2571 64.6062 19.9969 63.7052 19.474C62.8042 18.9524 62.0929 18.2411 61.5713 17.3401C61.0497 16.4391 60.7882 15.4591 60.7882 14.4C60.7882 13.341 61.0485 12.3646 61.5713 11.4709C62.0929 10.5784 62.8042 9.8671 63.7052 9.33696C64.6062 8.80804 65.5862 8.54297 66.6453 8.54297C67.6727 8.54297 68.6211 8.79223 69.4905 9.28954C70.3599 9.78806 71.059 10.4592 71.5892 11.3055C72.1181 12.1518 72.4075 13.088 72.4549 14.1155C72.5023 14.9861 72.5266 15.7995 72.5266 16.5583ZM68.3889 17.413C68.9178 17.0969 69.3373 16.6701 69.6462 16.1327C69.955 15.5953 70.1082 15.0104 70.1082 14.3781C70.1082 13.7458 69.9501 13.1646 69.634 12.6357C69.3179 12.1068 68.8947 11.6873 68.3658 11.3785C67.8357 11.0696 67.2545 10.9164 66.6222 10.9164C66.0057 10.9164 65.433 11.0745 64.9029 11.3906C64.3727 11.7068 63.9508 12.1299 63.6347 12.6588C63.3186 13.189 63.1605 13.7702 63.1605 14.4024C63.1605 15.0347 63.3186 15.6159 63.6347 16.1448C63.9508 16.675 64.374 17.0969 64.9029 17.413C65.4318 17.7292 66.013 17.8872 66.6453 17.8872C67.2776 17.8872 67.8588 17.7292 68.3889 17.413Z" fill="#292756"/>
<path d="M73.4276 8.97098C73.4276 8.84452 73.4702 8.74238 73.5577 8.66213C73.6441 8.5831 73.7438 8.54419 73.8544 8.54419H75.1591C75.2856 8.54419 75.3877 8.5831 75.4679 8.66213C75.547 8.74117 75.5871 8.84452 75.5871 8.97098L75.6819 15.2791C75.6819 16.1485 75.947 16.8294 76.4759 17.3182C77.0048 17.8082 77.6262 18.0538 78.3375 18.0538C79.0488 18.0538 79.6653 17.8094 80.1869 17.3182C80.7085 16.8282 80.9699 16.1485 80.9699 15.2791L81.0417 8.97098C81.0417 8.84452 81.0854 8.74238 81.1718 8.66213C81.2581 8.5831 81.3578 8.54419 81.4685 8.54419H82.7962C82.9227 8.54419 83.0248 8.5831 83.1051 8.66213C83.1841 8.74117 83.2242 8.84452 83.2242 8.97098L83.2948 15.5636L83.2717 19.6187C83.2717 19.7294 83.2315 19.8291 83.1525 19.9154C83.0735 20.0029 82.9701 20.0455 82.8436 20.0455H81.421C81.3104 20.0455 81.2155 20.0066 81.1365 19.9263C81.0575 19.8473 81.0101 19.7525 80.9943 19.6418V19.0484C80.4094 19.8546 79.5157 20.2583 78.3144 20.2583C77.2395 20.2583 76.3264 20.0248 75.5749 19.5591C74.8235 19.0934 74.263 18.4806 73.8909 17.7219C73.5188 16.9632 73.334 16.1485 73.334 15.2791L73.4276 8.97098Z" fill="#292756"/>
<path d="M92.9904 20.1865L85.3788 20.2583C85.284 20.2583 85.205 20.223 85.1417 20.1513C85.0785 20.0795 85.0469 19.9968 85.0469 19.902C85.0469 19.7914 85.0627 19.7123 85.0943 19.6649L87.9395 14.4012L89.9081 10.8678L85.2366 10.796C85.1259 10.796 85.0311 10.7571 84.9521 10.6769C84.873 10.5978 84.8329 10.503 84.8329 10.3924V9.04027C84.8329 8.92962 84.8718 8.83478 84.9521 8.75575C85.0311 8.67671 85.1259 8.63659 85.2366 8.63659L92.9673 8.54175C93.078 8.54175 93.1643 8.58066 93.2275 8.65969C93.2908 8.73873 93.3224 8.82627 93.3224 8.92111C93.3224 9.01595 93.3066 9.08648 93.275 9.1339L90.4054 14.3988L88.4612 17.9322L92.9904 18.0271C93.1011 18.0271 93.1959 18.0672 93.275 18.1462C93.354 18.2253 93.3941 18.3201 93.3941 18.4307V19.7585C93.3941 19.8692 93.354 19.9677 93.275 20.0552C93.1959 20.144 93.1011 20.1865 92.9904 20.1865Z" fill="#292756"/>
<path d="M104.776 14.0206C104.76 14.3368 104.611 14.614 104.325 14.8511C104.041 15.0882 103.725 15.2074 103.377 15.2074H96.1202C96.057 15.2074 96.0022 15.2305 95.9548 15.2779C95.9074 15.3253 95.8916 15.3885 95.9074 15.4676C96.1129 16.3211 96.5433 16.9534 97.1999 17.3644C97.8553 17.7754 98.6262 17.9809 99.5114 17.9809C99.9698 17.9809 100.456 17.8775 100.969 17.672C101.482 17.4665 101.93 17.1905 102.309 16.8428C102.388 16.7637 102.49 16.7236 102.617 16.7236C102.759 16.7236 102.861 16.7637 102.926 16.8428L103.874 17.7681C103.969 17.8313 104.016 17.9334 104.016 18.0757C104.016 18.2022 103.969 18.3128 103.874 18.4076C102.625 19.6406 101.155 20.257 99.4639 20.257C98.3575 20.257 97.3495 19.9968 96.44 19.474C95.5305 18.9524 94.8155 18.2447 94.2939 17.351C93.7723 16.4585 93.5108 15.4578 93.5108 14.3514C93.5108 13.972 93.5267 13.679 93.5583 13.4735C93.6847 12.4776 94.0252 11.6083 94.5784 10.8654C95.1317 10.1224 95.8308 9.54974 96.6771 9.14606C97.5221 8.74237 98.4438 8.54175 99.4396 8.54175C99.5977 8.54175 99.8348 8.55755 100.151 8.58917C101.005 8.68401 101.788 8.98799 102.499 9.50232C103.21 10.0154 103.771 10.6368 104.183 11.3639C104.594 12.091 104.799 12.795 104.799 13.4747L104.776 14.0206ZM97.2948 11.342C96.6698 11.8478 96.271 12.457 96.0971 13.1683L96.0728 13.24C96.0728 13.3033 96.0971 13.3592 96.1445 13.4054C96.1919 13.4528 96.2479 13.4771 96.3099 13.4771H102.404C102.483 13.4771 102.546 13.4455 102.594 13.3823C102.641 13.3191 102.648 13.2473 102.617 13.1683C102.396 12.4412 102.039 11.8284 101.549 11.331C101.059 10.8325 100.38 10.5845 99.5101 10.5845C98.659 10.5833 97.9197 10.8362 97.2948 11.342Z" fill="#292756"/>
<defs>
<linearGradient id="paint0_linear_2808_2390" x1="12.8467" y1="19.61" x2="17.1916" y2="7.67234" gradientUnits="userSpaceOnUse">
<stop offset="0.2687" stop-color="#E62875"/>
<stop offset="0.3584" stop-color="#D82A7D"/>
<stop offset="0.5267" stop-color="#B42F93"/>
<stop offset="0.7556" stop-color="#7A38B6"/>
<stop offset="1" stop-color="#3542E0"/>
</linearGradient>
<linearGradient id="paint1_linear_2808_2390" x1="-0.0408425" y1="19.935" x2="2.51842" y2="12.9035" gradientUnits="userSpaceOnUse">
<stop offset="0.2687" stop-color="#E62875"/>
<stop offset="0.3584" stop-color="#D82A7D"/>
<stop offset="0.5267" stop-color="#B42F93"/>
<stop offset="0.7556" stop-color="#7A38B6"/>
<stop offset="1" stop-color="#3542E0"/>
</linearGradient>
<linearGradient id="paint2_linear_2808_2390" x1="9.09939" y1="17.4801" x2="14.0487" y2="3.88194" gradientUnits="userSpaceOnUse">
<stop offset="0.2687" stop-color="#E62875"/>
<stop offset="0.3584" stop-color="#D82A7D"/>
<stop offset="0.5267" stop-color="#B42F93"/>
<stop offset="0.7556" stop-color="#7A38B6"/>
<stop offset="1" stop-color="#3542E0"/>
</linearGradient>
<linearGradient id="paint3_linear_2808_2390" x1="2.23692" y1="16.775" x2="7.18626" y2="3.17676" gradientUnits="userSpaceOnUse">
<stop offset="0.2687" stop-color="#E62875"/>
<stop offset="0.3584" stop-color="#D82A7D"/>
<stop offset="0.5267" stop-color="#B42F93"/>
<stop offset="0.7556" stop-color="#7A38B6"/>
<stop offset="1" stop-color="#3542E0"/>
</linearGradient>
<linearGradient id="paint4_linear_2808_2390" x1="5.30729" y1="16.2395" x2="10.9506" y2="0.734715" gradientUnits="userSpaceOnUse">
<stop offset="0.2687" stop-color="#E62875"/>
<stop offset="0.3584" stop-color="#D82A7D"/>
<stop offset="0.5267" stop-color="#B42F93"/>
<stop offset="0.7556" stop-color="#7A38B6"/>
<stop offset="1" stop-color="#3542E0"/>
</linearGradient>
</defs>
</svg>
