<svg width="15" height="15" viewBox="0 0 15 15" fill="none" xmlns="http://www.w3.org/2000/svg">
<path d="M7.5 2.99999C7.22386 2.99999 7 2.77613 7 2.49999C7 2.22385 7.22386 1.99999 7.5 1.99999C7.77614 1.99999 8 2.22385 8 2.49999C8 2.77613 7.77614 2.99999 7.5 2.99999Z" stroke="#403845"/>
<path d="M7.5 7.99999C7.22386 7.99999 7 7.77613 7 7.49999C7 7.22385 7.22386 6.99999 7.5 6.99999C7.77614 6.99999 8 7.22385 8 7.49999C8 7.77613 7.77614 7.99999 7.5 7.99999Z" stroke="#403845"/>
<path d="M7.5 13C7.22386 13 7 12.7761 7 12.5C7 12.2238 7.22386 12 7.5 12C7.77614 12 8 12.2238 8 12.5C8 12.7761 7.77614 13 7.5 13Z" stroke="#403845"/>
</svg>
