<svg width="16" height="16" viewBox="0 0 16 16" fill="none" xmlns="http://www.w3.org/2000/svg">
<path d="M15.7286 4L7.22861 4M7.22861 4C7.22861 2.89543 6.33318 2 5.22861 2C4.12404 2 3.22861 2.89543 3.22861 4M7.22861 4C7.22861 5.10457 6.33318 6 5.22861 6C4.12404 6 3.22861 5.10457 3.22861 4M3.22861 4L0.728607 4M15.7286 12L13.2286 12M13.2286 12C13.2286 10.8954 12.3332 10 11.2286 10C10.124 10 9.22861 10.8954 9.22861 12M13.2286 12C13.2286 13.1046 12.3332 14 11.2286 14C10.124 14 9.22861 13.1046 9.22861 12M9.22861 12H0.728607" stroke="white"/>
</svg>
