<svg width="16" height="16" viewBox="0 0 16 16" fill="none" xmlns="http://www.w3.org/2000/svg">
<path d="M15.7285 4L7.22852 4M7.22852 4C7.22852 2.89543 6.33309 2 5.22852 2C4.12395 2 3.22852 2.89543 3.22852 4M7.22852 4C7.22852 5.10457 6.33309 6 5.22852 6C4.12395 6 3.22852 5.10457 3.22852 4M3.22852 4L0.728516 4M15.7285 12L13.2285 12M13.2285 12C13.2285 10.8954 12.3331 10 11.2285 10C10.1239 10 9.22852 10.8954 9.22852 12M13.2285 12C13.2285 13.1046 12.3331 14 11.2285 14C10.1239 14 9.22852 13.1046 9.22852 12M9.22852 12H0.728516" stroke="black"/>
</svg>
